<?xml version="1.0" standalone="no"?>
<!DOCTYPE svg PUBLIC "-//W3C//DTD SVG 20010904//EN"
 "http://www.w3.org/TR/2001/REC-SVG-20010904/DTD/svg10.dtd">
<svg version="1.0" xmlns="http://www.w3.org/2000/svg"
 width="700.000000pt" height="700.000000pt" viewBox="0 0 700.000000 700.000000"
 preserveAspectRatio="xMidYMid meet">
<metadata>
Created by potrace 1.11, written by Peter Selinger 2001-2013
</metadata>
<g transform="translate(0.000000,700.000000) scale(0.100000,-0.100000)"
fill="#000000" stroke="none">
<path d="M3435 6749 c-33 -28 -91 -76 -130 -106 -38 -31 -74 -61 -80 -67 -5
-6 -30 -27 -55 -46 -25 -19 -47 -37 -50 -40 -3 -3 -52 -44 -110 -91 -58 -46
-107 -87 -110 -90 -3 -3 -27 -23 -55 -45 -27 -21 -61 -49 -75 -61 -24 -20
-127 -105 -365 -298 -60 -49 -119 -97 -130 -107 -11 -9 -153 -125 -315 -258
-162 -133 -313 -256 -335 -275 -22 -18 -132 -108 -245 -199 -113 -92 -216
-177 -230 -190 -14 -12 -72 -60 -130 -106 -58 -47 -182 -148 -276 -225 -93
-77 -190 -156 -214 -175 -24 -19 -55 -45 -69 -57 -14 -12 -120 -99 -236 -193
-116 -95 -213 -175 -217 -179 -7 -6 11 -30 112 -151 20 -25 59 -72 85 -105
183 -228 259 -315 269 -307 22 17 401 326 406 331 3 3 52 44 110 90 58 47 107
87 110 91 3 3 39 32 80 65 41 33 77 62 80 65 3 3 59 49 125 102 66 54 132 108
146 120 15 13 43 36 63 51 36 29 634 518 715 585 24 21 186 153 360 295 174
142 334 273 356 292 199 164 471 385 475 385 3 0 66 -50 140 -111 74 -61 180
-147 235 -192 55 -44 109 -89 120 -99 11 -9 102 -84 201 -165 227 -185 579
-473 619 -506 35 -29 591 -484 649 -531 21 -17 82 -67 135 -111 54 -44 216
-177 361 -295 237 -194 317 -260 445 -365 22 -19 60 -50 85 -69 l45 -36 20 23
c29 34 80 96 272 331 132 162 170 213 160 222 -17 16 -862 707 -1036 847 -80
65 -150 122 -154 127 -5 4 -8 311 -8 683 l0 675 -367 -1 -367 -2 0 -367 c0
-203 -4 -368 -8 -368 -7 0 -101 73 -117 91 -3 3 -79 65 -170 139 -233 188
-264 214 -270 221 -3 3 -115 95 -250 204 -135 110 -247 202 -250 205 -3 3 -52
43 -110 90 -58 46 -107 87 -110 90 -7 9 -270 220 -273 219 -1 0 -29 -23 -62
-50z"/>
<path d="M2593 4622 l-43 -3 0 -388 0 -387 388 1 387 0 3 388 2 387 -137 0
c-76 0 -232 1 -348 3 -115 1 -229 1 -252 -1z"/>
<path d="M3712 4622 l-42 -3 2 -387 3 -387 388 -1 387 -1 0 388 0 389 -97 0
c-54 0 -210 2 -348 3 -137 1 -269 1 -293 -1z"/>
<path d="M2554 3445 c-3 -6 -3 -181 -2 -390 l3 -380 385 0 385 0 3 388 c1 213
-1 388 -5 388 -5 1 -178 2 -387 3 -245 1 -380 -3 -382 -9z"/>
<path d="M3679 3449 c-5 -3 -8 -164 -7 -390 l3 -384 385 0 385 0 3 388 c1 213
-1 388 -5 388 -30 5 -757 3 -764 -2z"/>
<path d="M719 3235 c0 -32 -1 -578 0 -600 1 -20 7 -20 354 -20 193 0 359 -1
367 -3 11 -2 21 -29 33 -85 45 -217 145 -459 274 -660 23 -37 43 -70 43 -73 0
-3 -115 -121 -255 -261 -140 -140 -255 -258 -255 -262 0 -10 509 -516 514
-511 3 3 119 119 259 258 140 138 257 252 260 252 2 0 45 -25 93 -56 82 -51
213 -119 309 -159 91 -38 289 -96 372 -110 23 -3 43 -12 45 -18 2 -7 3 -173 3
-369 l-1 -358 58 0 c32 -1 162 -1 288 -1 127 0 265 0 308 1 l78 0 -1 348 c0
191 1 357 3 369 3 16 13 22 48 28 186 27 511 159 708 287 33 21 62 38 65 38 3
0 101 -96 218 -213 116 -116 232 -232 257 -257 l46 -44 258 258 258 258 -258
258 c-142 143 -258 261 -258 263 0 3 25 45 56 93 110 175 224 449 259 622 4
22 16 73 21 92 3 13 52 15 365 15 198 0 363 3 366 8 8 13 6 617 -2 625 -4 4
-333 7 -731 7 -639 0 -724 -2 -724 -15 1 -8 7 -53 14 -100 39 -254 -17 -547
-151 -800 -89 -168 -185 -279 -384 -445 -74 -61 -341 -192 -429 -210 -8 -2
-33 -8 -55 -14 -22 -6 -56 -13 -75 -16 -19 -2 -60 -8 -90 -13 -66 -9 -257 -8
-320 2 -25 4 -58 10 -75 12 -16 3 -63 14 -103 25 -348 94 -642 321 -821 634
-74 130 -143 319 -158 435 -2 19 -8 58 -12 87 -8 55 -6 260 4 303 2 14 8 45
11 70 l6 45 -731 0 c-726 0 -731 0 -732 -20z"/>
</g>
</svg>
