<?xml version="1.0" encoding="iso-8859-1"?>
<!-- Generator: Adobe Illustrator 16.0.0, SVG Export Plug-In . SVG Version: 6.00 Build 0)  -->
<!DOCTYPE svg PUBLIC "-//W3C//DTD SVG 1.1//EN" "http://www.w3.org/Graphics/SVG/1.1/DTD/svg11.dtd">
<svg xmlns="http://www.w3.org/2000/svg" xmlns:xlink="http://www.w3.org/1999/xlink" version="1.1" id="Capa_1" x="0px" y="0px" width="200px" height="200px" viewBox="0 0 458.198 458.198" style="enable-background:new 0 0 458.198 458.198;" xml:space="preserve">
<g>
	<g>
		<path d="M22.508,165.593c3.08,4.613,8.539,7.487,14.251,7.487c2.529,0,5.04-0.568,7.262-1.65l29.962-14.606v73.598    c0,4.356,3.539,7.896,7.901,7.896h302.371c4.361,0,7.9-3.54,7.9-7.896v-73.691l21.866,10.648c7.398,3.61,17.199,0.647,21.394-6.36    l16.188-26.987c2.204-3.674,2.803-7.955,1.691-12.047c-1.112-4.091-3.809-7.465-7.562-9.511L243.788,2.488    C239.985,0.427,235.933,0,233.201,0c-3.989,0-7.854,0.932-10.877,2.63L12.167,120.546c-3.729,2.085-6.423,5.624-7.401,9.694    c-0.98,4.075-0.183,8.452,2.188,12.014L22.508,165.593z M227,216.735c0,4.362-3.539,7.901-7.901,7.901h-25.24    c-4.362,0-7.901-3.539-7.901-7.901v-25.24c0-4.359,3.539-7.899,7.901-7.899h25.24c4.362,0,7.901,3.54,7.901,7.899V216.735z     M227,163.546c0,4.359-3.539,7.899-7.901,7.899h-25.24c-4.362,0-7.901-3.54-7.901-7.899v-25.24c0-4.362,3.539-7.901,7.901-7.901    h25.24c4.362,0,7.901,3.539,7.901,7.901V163.546z M280.197,216.735c0,4.362-3.539,7.901-7.901,7.901h-25.237    c-4.362,0-7.901-3.539-7.901-7.901v-25.24c0-4.359,3.539-7.899,7.901-7.899h25.237c4.362,0,7.901,3.54,7.901,7.899V216.735z     M280.197,163.546c0,4.359-3.539,7.899-7.901,7.899h-25.237c-4.362,0-7.901-3.54-7.901-7.899v-25.24    c0-4.362,3.539-7.901,7.901-7.901h25.237c4.362,0,7.901,3.539,7.901,7.901V163.546z M230.058,16.415    c1.112-0.615,5.235-0.559,6.185-0.038l201.83,109.535l-16.189,26.984c-0.076,0.134-0.416,0.294-0.939,0.284L243.636,66.856    c-3.782-1.841-7.819-2.227-10.547-2.227c-2.731,0-6.776,0.386-10.569,2.234L37.107,157.217c-0.104,0.041-1.28-0.127-1.455-0.394    l-15.206-22.808L230.058,16.415z" fill="#808a91"/>
		<path d="M362.06,458.198h22.196c4.361,0,7.9-3.539,7.9-7.896V303.976c0-4.367-3.539-7.901-7.9-7.901H81.893    c-4.362,0-7.901,3.534-7.901,7.901v146.316c0,4.362,3.539,7.901,7.901,7.901H265.71c4.362,0,7.901-3.539,7.901-7.901V331.336    c0-4.373,3.539-7.902,7.896-7.902h64.76c4.361,0,7.9,3.529,7.9,7.902v118.967C354.158,454.659,357.697,458.198,362.06,458.198z     M138.329,380.525c0,4.373-3.54,7.901-7.899,7.901h-17.633c-4.359,0-7.898-3.528-7.898-7.901v-49.189    c0-4.373,3.539-7.902,7.898-7.902h17.633c4.359,0,7.899,3.529,7.899,7.902V380.525z M186.971,380.525    c0,4.373-3.539,7.901-7.901,7.901h-20.672c-4.362,0-7.901-3.528-7.901-7.901v-49.189c0-4.373,3.539-7.902,7.901-7.902h20.672    c4.362,0,7.901,3.529,7.901,7.902V380.525z M233.074,380.525c0,4.373-3.54,7.901-7.899,7.901h-18.146    c-4.362,0-7.901-3.528-7.901-7.901v-49.189c0-4.373,3.54-7.902,7.901-7.902h18.146c4.36,0,7.899,3.529,7.899,7.902V380.525z" fill="#808a91"/>
		<polygon points="73.991,284.44 83.527,270.237 73.991,256.039   " fill="#808a91"/>
		<polygon points="85.906,266.698 96.799,250.479 75.012,250.479   " fill="#808a91"/>
		<polygon points="75.012,290.001 96.799,290.001 85.906,273.781   " fill="#808a91"/>
		<polygon points="98.31,255.303 88.283,270.237 98.31,285.172   " fill="#808a91"/>
		<polygon points="122.625,266.698 133.52,250.479 111.73,250.479   " fill="#808a91"/>
		<polygon points="104.393,250.479 104.393,290.001 106.975,290.001 120.254,270.237 106.975,250.479   " fill="#808a91"/>
		<polygon points="140.873,290.001 140.873,250.479 138.275,250.479 125.002,270.237 138.275,290.001   " fill="#808a91"/>
		<polygon points="111.73,290.001 133.52,290.001 122.625,273.781   " fill="#808a91"/>
		<polygon points="146.949,250.479 146.949,290.001 149.541,290.001 162.812,270.237 149.541,250.479   " fill="#808a91"/>
		<polygon points="165.189,266.698 176.084,250.479 154.297,250.479   " fill="#808a91"/>
		<polygon points="183.424,290.001 183.424,250.479 180.839,250.479 167.561,270.237 180.839,290.001   " fill="#808a91"/>
		<polygon points="154.297,290.001 176.084,290.001 165.189,273.781   " fill="#808a91"/>
		<polygon points="225.98,290.001 225.98,250.479 223.398,250.479 210.126,270.237 223.398,290.001   " fill="#808a91"/>
		<polygon points="189.507,250.479 189.507,290.001 192.097,290.001 205.368,270.237 192.097,250.479   " fill="#808a91"/>
		<polygon points="207.748,266.698 218.642,250.479 196.853,250.479   " fill="#808a91"/>
		<polygon points="196.853,290.001 218.642,290.001 207.748,273.781   " fill="#808a91"/>
		<polygon points="250.304,265.353 260.297,250.479 240.31,250.479   " fill="#808a91"/>
		<polygon points="232.063,250.479 232.063,290.001 233.754,290.001 247.927,268.901 235.557,250.479   " fill="#808a91"/>
		<polygon points="238.513,290.001 262.1,290.001 250.304,272.441   " fill="#808a91"/>
		<polygon points="268.544,290.001 268.544,250.479 265.055,250.479 252.686,268.901 266.857,290.001   " fill="#808a91"/>
		<polygon points="292.862,268.633 305.06,250.479 280.67,250.479   " fill="#808a91"/>
		<polygon points="274.622,250.479 274.622,290.001 278.517,290.001 290.485,272.177 275.917,250.479   " fill="#808a91"/>
		<polygon points="311.097,290.001 311.097,250.479 309.817,250.479 295.238,272.177 307.218,290.001   " fill="#808a91"/>
		<polygon points="283.27,290.001 302.459,290.001 292.862,275.717   " fill="#808a91"/>
		<polygon points="335.41,265.353 345.404,250.479 325.427,250.479   " fill="#808a91"/>
		<polygon points="317.181,250.479 317.181,290.001 318.866,290.001 333.044,268.901 320.669,250.479   " fill="#808a91"/>
		<polygon points="353.66,290.001 353.66,250.479 350.162,250.479 337.787,268.901 351.965,290.001   " fill="#808a91"/>
		<polygon points="323.624,290.001 347.206,290.001 335.41,272.441   " fill="#808a91"/>
		<polygon points="392.167,250.479 391.999,250.479 378.324,270.836 391.191,290.001 392.167,290.001   " fill="#808a91"/>
		<polygon points="359.734,250.479 359.734,290.001 360.698,290.001 373.576,270.836 359.901,250.479   " fill="#808a91"/>
		<polygon points="386.439,290.001 375.947,274.376 365.457,290.001   " fill="#808a91"/>
		<polygon points="364.659,250.479 375.947,267.287 387.241,250.479   " fill="#808a91"/>
	</g>
</g>
<g>
</g>
<g>
</g>
<g>
</g>
<g>
</g>
<g>
</g>
<g>
</g>
<g>
</g>
<g>
</g>
<g>
</g>
<g>
</g>
<g>
</g>
<g>
</g>
<g>
</g>
<g>
</g>
<g>
</g>
</svg>
