<?xml version="1.0" encoding="iso-8859-1"?>
<!-- Generator: Adobe Illustrator 19.0.0, SVG Export Plug-In . SVG Version: 6.00 Build 0)  -->
<svg version="1.1" id="Layer_1" xmlns="http://www.w3.org/2000/svg" xmlns:xlink="http://www.w3.org/1999/xlink" x="0px" y="0px"
	 viewBox="0 0 512 512" style="enable-background:new 0 0 512 512;" xml:space="preserve">
<path style="fill:#919EAF;" d="M443.252,479.273c21.254,0,65.189-81.68,65.189-102.935l0,0c0-21.254-17.229-38.484-38.484-38.484
	h-2.298"/>
<g>
	<rect x="461.63" y="361.401" style="fill:#BACBD8;" width="37.909" height="10.339"/>
	<rect x="461.63" y="384.376" style="fill:#BACBD8;" width="37.909" height="10.339"/>
	<polyline style="fill:#BACBD8;" points="262.03,154.077 262.03,59.855 299.94,59.855 299.94,113.284 	"/>
	<polygon style="fill:#BACBD8;" points="245.665,170.256 356.521,50.784 467.376,170.256 467.376,511.438 245.665,511.438 	"/>
</g>
<polygon style="fill:#919EAF;" points="356.521,50.784 245.665,170.256 245.665,208.165 356.521,94.437 467.376,208.165 
	467.376,170.256 "/>
<polyline style="fill:#C4743D;" points="17.344,412.525 17.344,511.319 138.83,511.319 138.83,385.074 "/>
<polyline style="fill:#FD5D65;" points="262.897,412.525 3.559,412.525 16.195,321.578 102.502,321.578 "/>
<polyline style="fill:#BACBD8;" points="274.667,364.277 274.667,511.319 264.207,511.319 113.84,511.319 113.84,364.277 "/>
<polyline style="fill:#CDEFF7;" points="216.08,364.277 216.08,443.542 158.642,443.542 158.642,364.277 "/>
<polyline style="fill:#919EAF;" points="290.75,364.277 274.667,391.967 264.207,391.967 113.84,391.967 113.84,364.277 "/>
<polygon style="fill:#FD5D65;" points="323.225,0 309.762,12.513 345.406,50.865 210.626,195.885 224.089,208.397 357.952,64.364 
	491.816,208.397 505.28,195.885 "/>
<polyline style="fill:#C4743D;" points="381.502,433.111 381.502,376.914 307.981,376.914 307.981,511.319 322.915,511.319 "/>
<polygon style="fill:#AD6432;" points="314.874,511.319 301.088,511.319 301.088,370.021 388.394,370.021 388.394,454 374.609,454 
	374.609,383.806 314.874,383.806 "/>
<g>
	<rect x="278.115" y="206.892" style="fill:#CDEFF7;" width="55.141" height="87.306"/>
	<rect x="380.355" y="206.892" style="fill:#CDEFF7;" width="55.141" height="87.306"/>
</g>
<g>
	<path style="fill:#AD6432;" d="M272.944,299.372h65.479v-97.645h-65.479V299.372L272.944,299.372z M283.283,255.719h17.231v33.314
		h-17.231V255.719L283.283,255.719z M310.853,289.033v-33.314h17.231v33.314H310.853z M328.084,245.38h-17.231v-33.314h17.231
		V245.38z M300.514,212.066v33.314h-17.231v-33.314H300.514z"/>
	<path style="fill:#AD6432;" d="M375.184,201.727v97.645h65.479v-97.645H375.184z M430.324,245.38h-17.231v-33.314h17.231V245.38z
		 M402.754,212.066v33.314h-17.231v-33.314H402.754z M385.522,255.719h17.231v33.314h-17.231V255.719z M413.093,289.033v-33.314
		h17.231v33.314H413.093z"/>
	<polygon style="fill:#AD6432;" points="210.911,359.108 210.911,438.372 192.53,438.372 192.53,360.257 182.191,360.257 
		182.191,438.372 163.811,438.372 163.811,359.108 153.472,359.108 153.472,448.711 221.249,448.711 221.249,359.108 	"/>
</g>
<circle style="fill:#FEC95B;" cx="357.954" cy="140.965" r="19.529"/>
<path style="fill:#919EAF;" d="M357.952,165.661c-13.619,0-24.698-11.08-24.698-24.698s11.08-24.698,24.698-24.698
	s24.698,11.08,24.698,24.698S371.571,165.661,357.952,165.661z M357.952,126.603c-7.918,0-14.36,6.441-14.36,14.36
	c0,7.918,6.441,14.36,14.36,14.36s14.36-6.441,14.36-14.36S365.871,126.603,357.952,126.603z"/>
<g>
	<rect x="33.429" y="413.669" style="fill:#AD6432;" width="13.785" height="96.496"/>
	<rect x="58.125" y="413.669" style="fill:#AD6432;" width="13.785" height="96.496"/>
	<rect x="82.826" y="413.669" style="fill:#AD6432;" width="13.785" height="96.496"/>
</g>
<path style="fill:#FD5D65;" d="M508.433,377.333l-0.85,133.992H322.919c0,0,12.636-96.496,141.298-96.496h5.744
	c0.287,0,0.574,0,0.862-0.011C491.351,414.368,507.916,397.837,508.433,377.333z"/>
<path style="fill:#FC8692;" d="M508.433,377.333l-0.85,133.992h-36.76v-96.508C491.351,414.368,507.916,397.837,508.433,377.333z"/>
<path style="fill:#E54E5C;" d="M467.376,332.77v10.366c17.159,1.33,30.718,15.708,30.718,33.203
	c0,18.37-14.944,33.314-33.314,33.314h-5.744c-37.82,0-89.848,8.709-122.938,50.194c-19.91,24.963-23.349,49.756-23.485,50.801
	l10.25,1.352c0.031-0.231,3.33-23.377,21.644-46.114c24.531-30.454,63.064-45.894,114.529-45.894h5.744
	c24.07,0,43.653-19.583,43.653-43.653C508.433,353.141,490.241,334.119,467.376,332.77z"/>
<polyline style="fill:#FD5D65;" points="245.948,250.55 110.394,250.55 97.757,364.277 290.75,364.277 290.75,316.029 
	245.948,316.029 245.948,250.55 "/>
<g>
</g>
<g>
</g>
<g>
</g>
<g>
</g>
<g>
</g>
<g>
</g>
<g>
</g>
<g>
</g>
<g>
</g>
<g>
</g>
<g>
</g>
<g>
</g>
<g>
</g>
<g>
</g>
<g>
</g>
</svg>
