<?xml version="1.0" encoding="iso-8859-1"?>
<!-- Generator: Adobe Illustrator 16.0.0, SVG Export Plug-In . SVG Version: 6.00 Build 0)  -->
<!DOCTYPE svg PUBLIC "-//W3C//DTD SVG 1.1//EN" "http://www.w3.org/Graphics/SVG/1.1/DTD/svg11.dtd">
<svg xmlns="http://www.w3.org/2000/svg" xmlns:xlink="http://www.w3.org/1999/xlink" version="1.1" id="Capa_1" x="0px" y="0px" width="60px" height="60px" viewBox="0 0 231.3 231.3" style="enable-background:new 0 0 231.3 231.3;" xml:space="preserve">
<g>
	<path d="M231.3,101.269l-15.332,18.734l-100.315-82.13l-100.324,82.13L0,101.269L115.653,6.576l51.374,42.067V23.85h24.21v44.615   L231.3,101.269z M109.976,78.578H84.252v25.724h25.724V78.578z M147.054,78.578H121.33v25.724h25.724V78.578z M84.252,142.89   h25.724v-25.724H84.252V142.89z M121.33,142.89h25.724v-25.724H121.33V142.89z M160.193,132.806   c0,24.565-19.979,44.55-44.541,44.55c-24.568,0-44.546-19.99-44.546-44.55c0-3.139,0.434-6.141,1.058-9.079H23.731v21.185H48.04   c1.773,9.954,5.677,19.163,11.239,27.148l-17.183,17.183l17.115,17.111l17.186-17.177c7.982,5.58,17.2,9.464,27.151,11.248v24.3   h24.208v-24.3c9.96-1.784,19.175-5.68,27.154-11.248l17.177,17.177l17.117-17.111l-17.177-17.183   c5.568-7.985,9.47-17.2,11.242-27.148h24.306v-21.185h-48.433C159.756,126.665,160.193,129.667,160.193,132.806z" fill="#756f5a"/>
</g>
<g>
</g>
<g>
</g>
<g>
</g>
<g>
</g>
<g>
</g>
<g>
</g>
<g>
</g>
<g>
</g>
<g>
</g>
<g>
</g>
<g>
</g>
<g>
</g>
<g>
</g>
<g>
</g>
<g>
</g>
</svg>
